<?xml version="1.0" encoding="UTF-8" standalone="no"?>
<svg
   class="svg-icon"
   style="overflow:hidden;fill:currentColor"
   viewBox="0 0 3024 1024"
   version="1.1"
   id="svg862"
   sodipodi:docname="new-eth.svg"
   inkscape:version="1.1 (c68e22c387, 2021-05-23)"
   width="3024"
   height="1024"
   inkscape:export-filename="C:\scx1332\gnoui\extra\new-eth.png"
   inkscape:export-xdpi="96"
   inkscape:export-ydpi="96"
   xmlns:inkscape="http://www.inkscape.org/namespaces/inkscape"
   xmlns:sodipodi="http://sodipodi.sourceforge.net/DTD/sodipodi-0.dtd"
   xmlns="http://www.w3.org/2000/svg"
   xmlns:svg="http://www.w3.org/2000/svg">
  <defs
     id="defs866">
    <marker
       markerWidth="5"
       markerHeight="5"
       refX="2.5"
       refY="2.5"
       viewBox="0 0 5 5"
       orient="auto"
       id="SvgjsMarker1789">
      <polygon
         points="0,5 1.6666666666666667,2.5 0,0 5,2.5"
         fill="hsl(227, 71%, 57%)"
         id="polygon1327" />
    </marker>
    <marker
       markerWidth="5"
       markerHeight="5"
       refX="2.5"
       refY="2.5"
       viewBox="0 0 5 5"
       orient="auto"
       id="SvgjsMarker1791">
      <polygon
         points="0,5 1.6666666666666667,2.5 0,0 5,2.5"
         fill="hsl(0, 0%, 0%)"
         id="polygon1350" />
    </marker>
  </defs>
  <sodipodi:namedview
     id="namedview864"
     pagecolor="#ffffff"
     bordercolor="#666666"
     borderopacity="1.0"
     inkscape:pageshadow="2"
     inkscape:pageopacity="0.0"
     inkscape:pagecheckerboard="0"
     showgrid="false"
     inkscape:zoom="1.0625392"
     inkscape:cx="1865.8135"
     inkscape:cy="603.74242"
     inkscape:window-width="1920"
     inkscape:window-height="991"
     inkscape:window-x="-9"
     inkscape:window-y="-9"
     inkscape:window-maximized="1"
     inkscape:current-layer="svg862"
     width="3024px"
     inkscape:snap-bbox="false"
     inkscape:object-paths="false" />
  <path
     id="path846"
     d="m 298.09961,180.53906 c -13.16826,0.30392 -26.13495,5.07245 -36.4888,13.18862 -12.0394,9.33516 -20.60303,23.11932 -23.33643,38.13264 -0.91187,4.7297 -1.08633,9.55859 -1.01266,14.36351 0.004,155.54568 -0.007,311.09146 0.006,466.63707 0.0492,13.55391 4.85126,26.97901 13.20453,37.62985 9.29414,11.98517 22.99623,20.53065 37.93446,23.29777 4.75941,0.93589 9.62288,1.12859 14.46169,1.05132 155.57836,-0.003 311.15681,0.007 466.73512,-0.005 12.73585,-0.0403 25.42856,-4.09797 35.78084,-11.52686 11.83535,-8.40562 20.56886,-21.06152 24.1869,-35.12328 1.55974,-5.8782 2.13552,-11.98021 2.01315,-18.05118 -0.003,-155.87836 0.007,-311.75681 -0.005,-467.63512 -0.0498,-13.521 -4.82765,-26.91431 -13.14403,-37.55256 -9.31521,-12.0536 -23.08521,-20.64007 -38.09362,-23.39616 -4.72862,-0.91892 -9.55788,-1.10785 -14.36354,-1.03217 -155.57901,0.004 -311.15812,-0.007 -466.73707,0.006 -0.38035,0.005 -0.7607,0.0106 -1.14105,0.0159 z m 1.5918,39.67383 c 156.62875,0.003 313.25759,-0.007 469.88629,0.005 7.15902,0.0544 14.17395,3.74957 18.22943,9.65589 2.88526,4.07089 4.26666,9.11022 4.08349,14.08125 -0.003,156.25948 0.006,312.51906 -0.005,468.77848 -0.0204,7.25255 -3.78821,14.36556 -9.79935,18.43006 -4.04784,2.81692 -9.02614,4.16345 -13.94,3.98286 -156.25948,-0.003 -312.51906,0.006 -468.77847,-0.005 -7.22742,-0.0204 -14.3159,-3.76247 -18.38771,-9.73741 -2.86478,-4.0848 -4.2177,-9.12545 -4.02327,-14.09412 0.003,-156.26209 -0.007,-312.52426 0.005,-468.7863 0.0527,-7.22388 3.82054,-14.29523 9.81194,-18.33824 3.77019,-2.60424 8.33827,-3.99046 12.91739,-3.97273 z" />
  <path
     d="m 534.88066,641.0469 c -90.6074,0 -164.74073,-74.13332 -164.74073,-164.74072 0,-90.6074 74.13333,-164.74073 164.74073,-164.74073 90.6074,0 164.74072,74.13333 164.74072,164.74073 0,90.6074 -73.2181,164.74072 -164.74072,164.74072 z m 0,-294.70285 c -71.38765,0 -129.04691,57.65925 -129.04691,129.0469 0,71.38765 57.65926,129.0469 129.04691,129.0469 71.38764,0 129.0469,-57.65925 129.0469,-129.0469 0,-71.38765 -57.65926,-129.0469 -129.0469,-129.0469 z"
     id="path848" />
  <path
     d="m 682.23208,579.72674 c -2.74567,0 -6.40658,-0.91522 -9.15226,-2.74568 L 525.72839,490.9498 c -5.49135,-2.74568 -9.15226,-9.15227 -9.15226,-15.55885 V 306.98932 c 0,-10.06749 8.23704,-17.3893 17.3893,-17.3893 10.06749,0 17.3893,8.23703 17.3893,17.3893 v 158.33414 l 138.19916,80.53991 c 8.23704,4.57613 10.98272,15.55885 6.40659,24.71111 -1.83045,6.40658 -7.32181,9.15226 -13.7284,9.15226 z"
     id="path850" />
  <path
     d="m 388.44445,579.72674 c -6.40658,0 -11.89794,-2.74568 -15.55884,-9.15226 -4.57613,-8.23704 -1.83045,-19.21975 6.40658,-24.71111 L 526.64362,459.8321 c 8.23704,-4.57613 19.21975,-1.83045 24.71111,6.40659 4.57613,8.23703 1.83045,19.21975 -6.40658,24.71111 l -147.35143,86.03126 c -3.66091,1.83046 -6.40659,2.74568 -9.15227,2.74568 z"
     id="path852" />
  <path
     d="M 864.36211,868.93824 H 205.3992 c -34.7786,0 -62.23538,-28.37201 -62.23538,-62.23538 V 147.73995 c 0,-34.7786 28.37201,-62.235388 62.23538,-62.235388 h 658.96291 c 34.7786,0 62.23539,28.372018 62.23539,62.235388 v 658.96291 c 0,34.77859 -28.37202,62.23538 -62.23539,62.23538 z M 205.3992,121.19839 c -14.64362,0 -26.54156,11.89794 -26.54156,26.54156 v 658.96291 c 0,14.64362 11.89794,26.54156 26.54156,26.54156 h 658.96291 c 14.64362,0 26.54156,-11.89794 26.54156,-26.54156 V 147.73995 c 0,-14.64362 -11.89794,-26.54156 -26.54156,-26.54156 z"
     id="path854" />
  <path
     d="m 534.88066,531.21975 c -30.20247,0 -54.91358,-24.71111 -54.91358,-54.91357 0,-30.20247 24.71111,-54.91358 54.91358,-54.91358 30.20246,0 54.91357,24.71111 54.91357,54.91358 0.91523,30.20246 -23.79588,54.91357 -54.91357,54.91357 z m 0,-75.04855 c -10.98272,0 -19.21975,9.15226 -19.21975,20.13498 0,10.98271 9.15226,20.13497 19.21975,20.13497 10.98271,0 20.13497,-9.15226 20.13497,-20.13497 0,-10.98272 -9.15226,-20.13498 -20.13497,-20.13498 z"
     id="path860" />
  <g
     style="display:block"
     id="g835"
     transform="matrix(1.4741936,0,0,1.3485063,1061.9121,91.333398)">
    <path
       id="path0"
       d="m 196.423,21.53 c -0.811,1.941 -25.318,43.092 -54.46,91.447 -29.142,48.354 -53.228,88.551 -53.526,89.327 -0.387,1.009 15.445,10.858 55.514,34.534 l 56.057,33.122 56.041,-33.14 C 296.31,213.011 311.937,203.279 311.546,202.259 309.521,196.981 200.545,18 199.356,18 c -0.802,0 -2.122,1.588 -2.933,3.53 M 88.57,226.125 c 2.16,3.693 110.975,156.795 111.43,156.781 0.752,-0.023 112.004,-157.235 111.574,-157.666 -0.406,-0.405 -104.395,60.841 -108.733,64.04 l -2.659,1.962 -53.841,-31.788 C 116.728,241.971 91.406,226.961 90.07,226.1 c -2.215,-1.427 -2.348,-1.425 -1.5,0.025"
       stroke="none"
       fill="#000000"
       fill-rule="evenodd" />
  </g>
  <g
     inkscape:label="Layer 1"
     id="layer1"
     transform="matrix(3.7795276,0,0,3.7795276,1718.1091,-23.354141)">
    <ellipse
       style="fill:#000000;fill-opacity:1;stroke-width:0.665001"
       id="path1538"
       cx="152.75873"
       cy="120.91084"
       rx="2.4071071"
       ry="0.18516208" />
    <ellipse
       style="fill:#000000;fill-opacity:1;stroke-width:0.665001"
       id="path1382"
       cx="129.54614"
       cy="149.63342"
       rx="83.508102"
       ry="84.248749" />
    <ellipse
       style="fill:#ffffff;fill-opacity:1;stroke-width:0.608897"
       id="path2142"
       cx="104.36409"
       cy="129.63593"
       rx="15.738778"
       ry="15.368454" />
    <ellipse
       style="overflow:hidden;fill:#ffffff;fill-opacity:1;stroke-width:0.608897"
       id="path2142-9"
       cx="151.75734"
       cy="129.43927"
       rx="15.738778"
       ry="15.368454" />
    <path
       style="fill:#ffffff;fill-opacity:1;stroke:#000000;stroke-width:0.260669px;stroke-linecap:butt;stroke-linejoin:miter;stroke-opacity:1"
       d="m 77.653881,165.51551 c 0,0 5.511937,17.78486 20.607744,29.30071 15.546615,11.85975 45.660085,11.67 61.080545,-0.35332 15.67393,-12.22094 17.96847,-28.47974 17.96847,-28.47974 0,0 -27.66244,5.43328 -50.20406,5.01467 -20.56898,-0.38198 -49.452699,-5.48232 -49.452699,-5.48232"
       id="path1601"
       sodipodi:nodetypes="csscsc" />
  </g>
  <line
     x1="1034.5127"
     y1="669.64044"
     x2="1655.1339"
     y2="669.64044"
     marker-end="url(#SvgjsMarker1791)"
     id="line1346"
     style="fill:none;stroke:#000000;stroke-width:35.0747;stroke-linecap:round;stroke-linejoin:round" />
</svg>
