<?xml version="1.0" encoding="UTF-8" standalone="no"?>
<svg
   class="svg-icon"
   style="width: 1em; height: 1em;vertical-align: middle;fill: currentColor;overflow: hidden;"
   viewBox="0 0 1024 1024"
   version="1.1"
   id="svg862"
   sodipodi:docname="safe.svg"
   inkscape:version="1.1 (c68e22c387, 2021-05-23)"
   xmlns:inkscape="http://www.inkscape.org/namespaces/inkscape"
   xmlns:sodipodi="http://sodipodi.sourceforge.net/DTD/sodipodi-0.dtd"
   xmlns="http://www.w3.org/2000/svg"
   xmlns:svg="http://www.w3.org/2000/svg">
  <defs
     id="defs866" />
  <sodipodi:namedview
     id="namedview864"
     pagecolor="#ffffff"
     bordercolor="#666666"
     borderopacity="1.0"
     inkscape:pageshadow="2"
     inkscape:pageopacity="0.0"
     inkscape:pagecheckerboard="0"
     showgrid="false"
     inkscape:zoom="0.75488281"
     inkscape:cx="512"
     inkscape:cy="512"
     inkscape:window-width="1920"
     inkscape:window-height="991"
     inkscape:window-x="-9"
     inkscape:window-y="-9"
     inkscape:window-maximized="1"
     inkscape:current-layer="svg862" />
  <path
     d="M769.17857956 772.8394846H299.6675073c-32.94814542 0-60.40493329-27.45678784-60.40493329-60.40493328V242.92347905c0-32.94814542 27.45678784-60.40493329 60.40493329-60.40493327h469.51107226c32.94814542 0 60.40493329 27.45678784 60.40493325 60.40493327v469.51107227c0 32.94814542-26.54156159 60.40493329-60.40493325 60.40493328zM299.6675073 218.21236998c-13.72839391 0-24.71110907 10.98271516-24.71110906 24.71110907v469.51107227c0 13.72839391 10.98271516 24.71110907 24.71110906 24.71110905h469.51107226c13.72839391 0 24.71110907-10.98271516 24.71110906-24.71110905V242.92347905c0-13.72839391-10.98271516-24.71110907-24.71110906-24.71110907H299.6675073z"
     id="path846" />
  <path
     d="M534.88065653 641.04690289c-90.60739991 0-164.74072711-74.1333272-164.7407271-164.74072709s74.1333272-164.74072711 164.7407271-164.74072712 164.74072711 74.1333272 164.74072712 164.74072712-73.21810095 164.74072711-164.74072712 164.74072709z m0-294.70285627c-71.38764842 0-129.04690289 57.6592545-129.0469029 129.04690292s57.6592545 129.04690289 129.0469029 129.0469029 129.04690289-57.6592545 129.04690293-129.0469029-57.6592545-129.04690289-129.04690293-129.04690292z"
     id="path848" />
  <path
     d="M682.23208468 579.72674338c-2.74567878 0-6.40658382-0.91522626-9.15226261-2.74567879l-147.35142816-86.03126861c-5.49135757-2.74567878-9.15226261-9.15226261-9.15226261-15.55884644V306.98931737c0-10.06748889 8.23703635-17.38929897 17.38929897-17.38929896 10.06748889 0 17.38929897 8.23703635 17.38929897 17.38929896v158.33414329l138.19916553 80.539911c8.23703635 4.5761313 10.98271516 15.55884645 6.40658383 24.7111091-1.83045253 6.40658382-7.3218101 9.15226261-13.72839392 9.15226262z"
     id="path850" />
  <path
     d="M388.44445468 579.72674338c-6.40658382 0-11.8979414-2.74567878-15.55884645-9.15226262-4.5761313-8.23703635-1.83045253-19.21975149 6.40658383-24.7111091l147.35142811-86.03126859c8.23703635-4.5761313 19.21975149-1.83045253 24.71110907 6.40658385 4.5761313 8.23703635 1.83045253 19.21975149-6.40658382 24.71110906l-147.35142814 86.03126861c-3.66090506 1.83045253-6.40658382 2.74567878-9.1522626 2.74567879z"
     id="path852" />
  <path
     d="M864.36211077 868.93824208h-658.96290844c-34.77859794 0-62.2353858-28.37201411-62.23538579-62.23538582v-658.96290843c0-34.77859794 28.37201411-62.2353858 62.23538579-62.23538579h658.96290844c34.77859794 0 62.2353858 28.37201411 62.2353858 62.23538579v658.96290843c0 34.77859794-28.37201411 62.2353858-62.2353858 62.23538582z m-658.96290844-747.73985584c-14.64362017 0-26.54156159 11.8979414-26.5415616 26.54156159v658.96290843c0 14.64362017 11.8979414 26.54156159 26.5415616 26.5415616h658.96290844c14.64362017 0 26.54156159-11.8979414 26.54156157-26.5415616v-658.96290843c0-14.64362017-11.8979414-26.54156159-26.54156157-26.54156159h-658.96290844z"
     id="path854" />
  <path
     d="M534.88065653 531.21975149c-30.20246662 0-54.91357571-24.71110907-54.91357569-54.91357569s24.71110907-54.91357571 54.91357569-54.91357571 54.91357571 24.71110907 54.91357573 54.91357571c0.91522626 30.20246662-23.79588279 54.91357571-54.91357573 54.91357569z m0-75.04855347c-10.98271516 0-19.21975149 9.15226261-19.21975147 20.13497778s9.15226261 20.13497775 19.21975147 20.13497775c10.98271516 0 20.13497775-9.15226261 20.13497776-20.13497775s-9.15226261-20.13497775-20.13497776-20.13497778z"
     id="path860" />
</svg>
