<?xml version="1.0" encoding="UTF-8" standalone="no"?>
<svg
   width="148.17683mm"
   height="137.39432mm"
   viewBox="0 0 148.17683 137.39432"
   version="1.1"
   id="svg844"
   xmlns="http://www.w3.org/2000/svg">
  <g
     transform="translate(33.723079,-77.951214)">
    <ellipse
       style="fill:#919191"
       id="path32447"
       cx="41.565178"
       cy="124.24174"
       rx="42.402119"
       ry="46.290524" />
    <path
       style="fill:#919191"
       d="m 33.587054,230.99374 c 0,0 0.423458,-2.26416 4.335555,-10.5451 6.27119,-13.27455 8.991697,-17.70851 15.218912,-23.06584 3.19309,-2.74704 7.013528,-5.56221 12.046438,-7.60095 5.03291,-2.03874 11.347526,-2.86729 11.347526,-2.86729 0,0 11.333712,9.94625 31.139985,10.00508 19.80627,-0.0588 31.13999,-10.00508 31.13999,-10.00508 0,0 6.31461,0.82855 11.34752,2.86729 5.03291,2.03874 8.85335,4.85391 12.04644,7.60095 6.22721,5.35733 8.94772,9.79129 15.21891,23.06584 3.9121,8.28094 4.33556,10.5451 4.33556,10.5451"
       id="path19916"
       transform="translate(-67.310133,-15.648206)" />
    <ellipse
       style="overflow:hidden;fill:#F0ECE9;fill-opacity:1;"
       id="path2142"
       cx="28.870911"
       cy="115.28499"
       rx="8.131258"
       ry="8.2901793" />
    <ellipse
       style="overflow:hidden;fill:#F0ECE9;fill-opacity:1;"
       id="path2142-6"
       cx="53.405045"
       cy="115.49828"
       rx="8.131258"
       ry="8.2901793" />
    <path
       style="overflow:hidden;fill:#F0ECE9;fill-opacity:1;stroke:none;"
       d="m 15.997189,136.3985 c 0,0 2.745266,7.95063 10.263857,13.09873 7.743128,5.30184 22.741397,5.21702 30.42168,-0.15794 7.806538,-5.46331 8.949359,-12.73173 8.949359,-12.73173 0,0 -13.777519,2.42892 -25.004567,2.24178 -10.244549,-0.17076 -24.630329,-2.45084 -24.630329,-2.45084"
       />
  </g>
</svg>
