<?xml version="1.0" encoding="UTF-8" standalone="no"?>
<svg
   class="svg-icon"
   style="overflow:hidden;fill:currentColor"
   viewBox="0 0 2229.6072 783.43365"
   version="1.1"
   id="svg862"
   sodipodi:docname="new-eth.svg"
   inkscape:version="1.1 (c68e22c387, 2021-05-23)"
   width="2229.6072"
   height="783.43365"
   inkscape:export-filename="C:\scx1332\gnoui\extra\new-eth.png"
   inkscape:export-xdpi="96"
   inkscape:export-ydpi="96"
   xmlns:inkscape="http://www.inkscape.org/namespaces/inkscape"
   xmlns:sodipodi="http://sodipodi.sourceforge.net/DTD/sodipodi-0.dtd"
   xmlns="http://www.w3.org/2000/svg"
   xmlns:svg="http://www.w3.org/2000/svg">
  <defs
     id="defs866">
    <marker
       markerWidth="5"
       markerHeight="5"
       refX="2.5"
       refY="2.5"
       viewBox="0 0 5 5"
       orient="auto"
       id="SvgjsMarker1789">
      <polygon
         points="5,2.5 0,5 1.6666667,2.5 0,0 "
         fill="#919191"
         id="polygon1327" />
    </marker>
    <marker
       markerWidth="5"
       markerHeight="5"
       refX="2.5"
       refY="2.5"
       viewBox="0 0 5 5"
       orient="auto"
       id="SvgjsMarker1791">
      <polygon
         points="5,2.5 0,5 1.6666667,2.5 0,0 "
         fill="#919191"
         id="polygon1350" />
    </marker>
  </defs>
  <sodipodi:namedview
     id="namedview864"
     pagecolor="#ffffff"
     bordercolor="#666666"
     borderopacity="1.0"
     inkscape:pageshadow="2"
     inkscape:pageopacity="0.0"
     inkscape:pagecheckerboard="0"
     showgrid="false"
     inkscape:zoom="0.5312696"
     inkscape:cx="1279.0116"
     inkscape:cy="200.46319"
     inkscape:window-width="2400"
     inkscape:window-height="1321"
     inkscape:window-x="2391"
     inkscape:window-y="-9"
     inkscape:window-maximized="1"
     inkscape:current-layer="svg862"
     width="3024px"
     inkscape:snap-bbox="false"
     inkscape:object-paths="false"
     fit-margin-top="0"
     fit-margin-left="0"
     fit-margin-right="0"
     fit-margin-bottom="0" />
  <path
     id="path846"
     d="m 154.93579,95.034498 c -13.16826,0.30392 -26.13495,5.072452 -36.4888,13.188622 -12.0394,9.33516 -20.60303,23.11932 -23.33643,38.13264 -0.91187,4.7297 -1.08633,9.55859 -1.01266,14.36351 0.004,155.54568 -0.007,311.09146 0.006,466.63707 0.0492,13.55391 4.85126,26.97901 13.20453,37.62985 9.29414,11.98517 22.99623,20.53065 37.93446,23.29777 4.75941,0.93589 9.62288,1.12859 14.46169,1.05132 155.57836,-0.003 311.15681,0.007 466.73512,-0.005 12.73585,-0.0403 25.42856,-4.09797 35.78084,-11.52686 11.83535,-8.40562 20.56886,-21.06152 24.1869,-35.12328 1.55974,-5.8782 2.13552,-11.98021 2.01315,-18.05118 -0.003,-155.87836 0.007,-311.75681 -0.005,-467.63512 -0.0498,-13.521 -4.82765,-26.91431 -13.14403,-37.55256 -9.31521,-12.0536 -23.08521,-20.640072 -38.09362,-23.396162 -4.72862,-0.91892 -9.55788,-1.10785 -14.36354,-1.03217 -155.57901,0.004 -311.15812,-0.007 -466.73707,0.006 -0.38035,0.005 -0.7607,0.0106 -1.14105,0.0159 z m 1.5918,39.673832 c 156.62875,0.003 313.25759,-0.007 469.88629,0.005 7.15902,0.0544 14.17395,3.74957 18.22943,9.65589 2.88526,4.07089 4.26666,9.11022 4.08349,14.08125 -0.003,156.25948 0.006,312.51906 -0.005,468.77848 -0.0204,7.25255 -3.78821,14.36556 -9.79935,18.43006 -4.04784,2.81692 -9.02614,4.16345 -13.94,3.98286 -156.25948,-0.003 -312.51906,0.006 -468.77847,-0.005 -7.22742,-0.0204 -14.3159,-3.76247 -18.38771,-9.73741 -2.86478,-4.0848 -4.2177,-9.12545 -4.02327,-14.09412 0.003,-156.26209 -0.007,-312.52426 0.005,-468.7863 0.0527,-7.22388 3.82054,-14.29523 9.81194,-18.33824 3.77019,-2.60424 8.33827,-3.99046 12.91739,-3.97273 z"
     style="fill:#919191;fill-opacity:1" />
  <path
     d="m 391.71684,555.54234 c -90.6074,0 -164.74073,-74.13332 -164.74073,-164.74072 0,-90.6074 74.13333,-164.74073 164.74073,-164.74073 90.6074,0 164.74072,74.13333 164.74072,164.74073 0,90.6074 -73.2181,164.74072 -164.74072,164.74072 z m 0,-294.70285 c -71.38765,0 -129.04691,57.65925 -129.04691,129.0469 0,71.38765 57.65926,129.0469 129.04691,129.0469 71.38764,0 129.0469,-57.65925 129.0469,-129.0469 0,-71.38765 -57.65926,-129.0469 -129.0469,-129.0469 z"
     id="path848"
     style="fill:#919191;fill-opacity:1" />
  <path
     d="m 539.06826,494.22218 c -2.74567,0 -6.40658,-0.91522 -9.15226,-2.74568 L 382.56457,405.44524 c -5.49135,-2.74568 -9.15226,-9.15227 -9.15226,-15.55885 V 221.48476 c 0,-10.06749 8.23704,-17.3893 17.3893,-17.3893 10.06749,0 17.3893,8.23703 17.3893,17.3893 V 379.8189 l 138.19916,80.53991 c 8.23704,4.57613 10.98272,15.55885 6.40659,24.71111 -1.83045,6.40658 -7.32181,9.15226 -13.7284,9.15226 z"
     id="path850"
     style="fill:#919191;fill-opacity:1" />
  <path
     d="m 245.28063,494.22218 c -6.40658,0 -11.89794,-2.74568 -15.55884,-9.15226 -4.57613,-8.23704 -1.83045,-19.21975 6.40658,-24.71111 L 383.4798,374.32754 c 8.23704,-4.57613 19.21975,-1.83045 24.71111,6.40659 4.57613,8.23703 1.83045,19.21975 -6.40658,24.71111 L 254.4329,491.4765 c -3.66091,1.83046 -6.40659,2.74568 -9.15227,2.74568 z"
     id="path852"
     style="fill:#919191;fill-opacity:1" />
  <path
     d="M 721.19829,783.43368 H 62.23538 C 27.45678,783.43368 0,755.06167 0,721.1983 V 62.235388 C 0,27.456788 28.37201,0 62.23538,0 h 658.96291 c 34.7786,0 62.23539,28.372018 62.23539,62.235388 V 721.1983 c 0,34.77859 -28.37202,62.23538 -62.23539,62.23538 z M 62.23538,35.693828 c -14.64362,0 -26.54156,11.89794 -26.54156,26.54156 V 721.1983 c 0,14.64362 11.89794,26.54156 26.54156,26.54156 h 658.96291 c 14.64362,0 26.54156,-11.89794 26.54156,-26.54156 V 62.235388 c 0,-14.64362 -11.89794,-26.54156 -26.54156,-26.54156 z"
     id="path854"
     style="fill:#919191;fill-opacity:1" />
  <path
     d="m 391.71684,445.71519 c -30.20247,0 -54.91358,-24.71111 -54.91358,-54.91357 0,-30.20247 24.71111,-54.91358 54.91358,-54.91358 30.20246,0 54.91357,24.71111 54.91357,54.91358 0.91523,30.20246 -23.79588,54.91357 -54.91357,54.91357 z m 0,-75.04855 c -10.98272,0 -19.21975,9.15226 -19.21975,20.13498 0,10.98271 9.15226,20.13497 19.21975,20.13497 10.98271,0 20.13497,-9.15226 20.13497,-20.13497 0,-10.98272 -9.15226,-20.13498 -20.13497,-20.13498 z"
     id="path860"
     style="fill:#919191;fill-opacity:1" />
  <g
     style="display:block"
     id="g835"
     transform="matrix(1.4741936,0,0,1.3485063,914.98371,17.122537)">
    <path
       id="path0"
       d="m 196.423,21.53 c -0.811,1.941 -25.318,43.092 -54.46,91.447 -29.142,48.354 -53.228,88.551 -53.526,89.327 -0.387,1.009 15.445,10.858 55.514,34.534 l 56.057,33.122 56.041,-33.14 C 296.31,213.011 311.937,203.279 311.546,202.259 309.521,196.981 200.545,18 199.356,18 c -0.802,0 -2.122,1.588 -2.933,3.53 M 88.57,226.125 c 2.16,3.693 110.975,156.795 111.43,156.781 0.752,-0.023 112.004,-157.235 111.574,-157.666 -0.406,-0.405 -104.395,60.841 -108.733,64.04 l -2.659,1.962 -53.841,-31.788 C 116.728,241.971 91.406,226.961 90.07,226.1 c -2.215,-1.427 -2.348,-1.425 -1.5,0.025"
       stroke="none"
       fill="#919191"
       fill-rule="evenodd" />
  </g>
  <g
     id="g855"
     transform="translate(-150.58268,-63.997639)">
    <ellipse
       style="fill:#919191;stroke-width:3.77953"
       id="path1538"
       cx="2152.301"
       cy="348.12717"
       rx="9.0977278"
       ry="0.69982523" />
    <ellipse
       style="fill:#919191;stroke-width:3.77953"
       id="path1382"
       cx="2064.5686"
       cy="456.68497"
       rx="315.62119"
       ry="318.42047" />
    <ellipse
       style="fill:#ffffff;stroke-width:3.77953"
       id="path2142"
       cx="1969.3923"
       cy="381.10388"
       rx="59.485146"
       ry="58.085495" />
    <ellipse
       style="overflow:hidden;fill:#ffffff;stroke-width:3.77953"
       id="path2142-9"
       cx="2148.5164"
       cy="380.3606"
       rx="59.485146"
       ry="58.085495" />
    <path
       style="fill:#ffffff;fill-opacity:1;stroke:none;stroke-width:0.985206px;stroke-linecap:butt;stroke-linejoin:miter;stroke-opacity:1"
       d="m 1868.4403,516.71174 c 0,0 20.8325,67.21837 77.8875,110.74284 58.7589,44.82425 172.5736,44.10709 230.8556,-1.33538 59.2401,-46.18938 67.9124,-107.63997 67.9124,-107.63997 0,0 -104.551,20.53524 -189.7477,18.95309 -77.741,-1.44371 -186.9078,-20.72058 -186.9078,-20.72058"
       id="path1601"
       sodipodi:nodetypes="csscsc" />
  </g>
  <line
     x1="891.34888"
     y1="584.13586"
     x2="1511.9701"
     y2="584.13586"
     marker-end="url(#SvgjsMarker1791)"
     id="line1346"
     style="fill:none;stroke:#919191;stroke-width:35.0747;stroke-linecap:round;stroke-linejoin:round;stroke-opacity:1" />
</svg>
