<?xml version="1.0" encoding="UTF-8" standalone="no"?>
<svg
        class="svg-icon"
        style="overflow:hidden;fill:currentColor"
        viewBox="0 0 783.43365 783.43365"
        version="1.1"
        width="783.43365"
        height="783.43365"
        xmlns="http://www.w3.org/2000/svg">
  <defs />

  <path
          d="M 626.01476,687.33492 H 156.50369 c -32.94815,0 -60.404937,-27.45678 -60.404937,-60.40493 V 157.41892 c 0,-32.94815 27.456787,-60.404932 60.404937,-60.404932 h 469.51107 c 32.94814,0 60.40493,27.456782 60.40493,60.404932 v 469.51107 c 0,32.94815 -26.54156,60.40493 -60.40493,60.40493 z M 156.50369,132.70781 c -13.7284,0 -24.71111,10.98272 -24.71111,24.71111 v 469.51107 c 0,13.7284 10.98271,24.71111 24.71111,24.71111 h 469.51107 c 13.72839,0 24.71111,-10.98271 24.71111,-24.71111 V 157.41892 c 0,-13.72839 -10.98272,-24.71111 -24.71111,-24.71111 z"
          style="fill:#919191;fill-opacity:1" />
  <path
          d="m 391.71684,555.54234 c -90.6074,0 -164.74073,-74.13332 -164.74073,-164.74072 0,-90.6074 74.13333,-164.74073 164.74073,-164.74073 90.6074,0 164.74072,74.13333 164.74072,164.74073 0,90.6074 -73.2181,164.74072 -164.74072,164.74072 z m 0,-294.70285 c -71.38765,0 -129.04691,57.65925 -129.04691,129.0469 0,71.38765 57.65926,129.0469 129.04691,129.0469 71.38764,0 129.0469,-57.65925 129.0469,-129.0469 0,-71.38765 -57.65926,-129.0469 -129.0469,-129.0469 z"
          style="fill:#919191;fill-opacity:1" />
  <path
          d="m 539.06826,494.22218 c -2.74567,0 -6.40658,-0.91522 -9.15226,-2.74568 L 382.56457,405.44524 c -5.49135,-2.74568 -9.15226,-9.15227 -9.15226,-15.55885 V 221.48476 c 0,-10.06749 8.23704,-17.3893 17.3893,-17.3893 10.06749,0 17.3893,8.23703 17.3893,17.3893 V 379.8189 l 138.19916,80.53991 c 8.23704,4.57613 10.98272,15.55885 6.40659,24.71111 -1.83045,6.40658 -7.32181,9.15226 -13.7284,9.15226 z"
          style="fill:#919191;fill-opacity:1" />
  <path
          d="m 245.28063,494.22218 c -6.40658,0 -11.89794,-2.74568 -15.55884,-9.15226 -4.57613,-8.23704 -1.83045,-19.21975 6.40658,-24.71111 L 383.4798,374.32754 c 8.23704,-4.57613 19.21975,-1.83045 24.71111,6.40659 4.57613,8.23703 1.83045,19.21975 -6.40658,24.71111 L 254.4329,491.4765 c -3.66091,1.83046 -6.40659,2.74568 -9.15227,2.74568 z"
          style="fill:#919191;fill-opacity:1" />
  <path
          d="M 721.19829,783.43368 H 62.235383 C 27.456783,783.43368 3.46e-6,755.06167 3.46e-6,721.1983 V 62.235388 C 3.46e-6,27.456788 28.372013,-4.0000003e-8 62.235383,-4.0000003e-8 H 721.19829 C 755.97689,-4.0000003e-8 783.43368,28.372018 783.43368,62.235388 V 721.1983 c 0,34.77859 -28.37202,62.23538 -62.23539,62.23538 z M 62.235383,35.693828 c -14.64362,0 -26.54156,11.89794 -26.54156,26.54156 V 721.1983 c 0,14.64362 11.89794,26.54156 26.54156,26.54156 H 721.19829 c 14.64362,0 26.54156,-11.89794 26.54156,-26.54156 V 62.235388 c 0,-14.64362 -11.89794,-26.54156 -26.54156,-26.54156 z"
          style="fill:#919191;fill-opacity:1" />
  <path
          d="m 391.71684,445.71519 c -30.20247,0 -54.91358,-24.71111 -54.91358,-54.91357 0,-30.20247 24.71111,-54.91358 54.91358,-54.91358 30.20246,0 54.91357,24.71111 54.91357,54.91358 0.91523,30.20246 -23.79588,54.91357 -54.91357,54.91357 z m 0,-75.04855 c -10.98272,0 -19.21975,9.15226 -19.21975,20.13498 0,10.98271 9.15226,20.13497 19.21975,20.13497 10.98271,0 20.13497,-9.15226 20.13497,-20.13497 0,-10.98272 -9.15226,-20.13498 -20.13497,-20.13498 z"
          style="fill:#919191;fill-opacity:1" />
</svg>
